<svg width="32" height="32" viewBox="0 0 32 32" fill="none" xmlns="http://www.w3.org/2000/svg">
	<path
		fill-rule="evenodd"
		clip-rule="evenodd"
		d="M6.14999 6.14999C8.76586 3.53412 12.3009 2.04476 16 2C19.6991 2.04476 23.2341 3.53412 25.85 6.14999C28.4659 8.76586 29.9552 12.3009 30 16C29.9552 19.6991 28.4659 23.2341 25.85 25.85C23.2341 28.4659 19.6991 29.9552 16 30C12.3009 29.9552 8.76586 28.4659 6.14999 25.85C3.53412 23.2341 2.04476 19.6991 2 16C2.04476 12.3009 3.53412 8.76586 6.14999 6.14999ZM17 17H24V15H17V8H15V15H8V17H15V24H17V17Z"
		fill="var(--color-text-secondary)"
	/>
</svg>
